<svg width="100" height="101" viewBox="0 0 100 101" fill="none" xmlns="http://www.w3.org/2000/svg">
<g id="Layer_1" clip-path="url(#clip0_2_5)">
<path id="Vector" d="M41.4448 71.7552L32.9389 93.1196L30.8432 92.2698L40.927 71.5367L41.4448 71.7552Z" fill="#6DBE49"/>
<path id="Vector_2" d="M36.1933 68.3563L25.0986 82.8258L22.214 80.4466L34.7633 67.1667L36.1933 68.3563Z" fill="#D22968"/>
<path id="Vector_3" d="M3.3284 65.1759L4.61045 68.6476L14.2998 64.6418L13.289 62.0926L3.3284 65.1759Z" fill="#F8E65C"/>
<path id="Vector_4" d="M28.4517 57.3828L15.5325 61.3886L16.4941 63.8892L29.0927 59.1307L28.4517 57.3828Z" fill="#F8E65C"/>
<path id="Vector_5" d="M26.997 52.0902L0 53.5468V48.5942L26.997 50.2451V52.0902Z" fill="#D22968"/>
<path id="Vector_6" d="M42.5542 28.5408L31.4102 5.03994L38.0917 2.53934L44.3294 27.9096L42.5542 28.5408Z" fill="#325CA8"/>
<path id="Vector_7" d="M50.3205 27.9096L49.5069 0.5H53.2544L52.2189 27.9096H50.3205Z" fill="#6DBE49"/>
<path id="Vector_8" d="M61.7603 31.3813L70.3156 15.0909L73.5947 16.936L63.4122 32.3038L61.7603 31.3813Z" fill="#754FA0"/>
<path id="Vector_9" d="M67.8994 36.3096L87.7219 18.8539L89.9408 21.7187L68.9102 37.742L67.8994 36.3096Z" fill="#325CA8"/>
<path id="Vector_10" d="M72.6085 44.5641L99.0631 37.4507L97.9783 33.9547L72.1647 43.2288L72.6085 44.5641Z" fill="#F8E65C"/>
<path id="Vector_11" d="M74.1864 47.9872L96.2032 46.1179L95.7594 42.4762L74.0878 46.9919L74.1864 47.9872Z" fill="#754FA0"/>
<path id="Vector_12" d="M73.4221 52.5272L100 53.5712V49.8567L73.4221 50.6821V52.5272Z" fill="#D22968"/>
<path id="Vector_13" d="M67.924 66.1956L87.1795 83.6027L88.9793 81.7819L68.2939 65.8071L67.924 66.1956Z" fill="#6DBE49"/>
<path id="Vector_14" d="M61.4645 71.0997L59.8126 72.0222L69.4773 89.6964L72.7564 87.8513L61.4645 71.0997Z" fill="#37C0C9"/>
<g id="Group">
<path id="Vector_15" d="M58.7032 71.9736L56.9527 72.6049L58.3333 76.8777L60.355 76.1737L58.7032 71.9736Z" fill="#D22968"/>
<path id="Vector_16" d="M68.787 97.1011L60.9714 77.5332L58.8018 78.3344L65.2613 98.3636L68.787 97.1011Z" fill="#D22968"/>
</g>
<path id="Vector_17" d="M53.0325 73.5517L56.6075 99.3104L60.3304 98.6549L54.2653 73.4546L53.0325 73.5517Z" fill="#DC5937"/>
<g id="Group_2">
<path id="Vector_18" d="M25.5671 27.6425L14.497 17.7372L12.0809 20.5777L23.7919 29.6576L25.5671 27.6425Z" fill="#37C0C9"/>
<path id="Vector_19" d="M27.4655 29.342L25.7643 31.1871L32.3472 36.3582L33.5552 34.9259L27.4655 29.342Z" fill="#37C0C9"/>
</g>
<g id="Group_3">
<path id="Vector_20" d="M45.4389 11.1336L44.9704 4.94281L40.6065 5.67114L42.283 11.6677L45.4389 11.1336Z" fill="#010101"/>
<path id="Vector_21" d="M45.8333 14.6053L42.924 15.1395L45.8333 29.8032L47.2879 29.5119L45.8333 14.6053Z" fill="#010101"/>
</g>
<g id="Group_4">
<path id="Vector_22" d="M68.6884 9.28853L69.9951 6.18098L66.4448 4.89426L65.3846 8.05036L68.6884 9.28853Z" fill="#F8E65C"/>
<path id="Vector_23" d="M64.8176 9.79837L58.358 29.7789L59.714 30.4102L67.998 10.9637L64.8176 9.79837Z" fill="#F8E65C"/>
</g>
<g id="Group_5">
<path id="Vector_24" d="M72.7317 28.031L85.6509 14.3626L82.7663 11.9834L70.8087 26.3801L72.7317 28.031Z" fill="#D22968"/>
<path id="Vector_25" d="M68.8116 28.8807L65.0641 33.5906L66.4941 34.7802L70.5621 30.3374L68.8116 28.8807Z" fill="#D22968"/>
</g>
<g id="Group_6">
<path id="Vector_26" d="M83.0375 55.9989L73.1262 54.5908L72.8057 56.4116L82.6676 58.5238L83.0375 55.9989Z" fill="#DC5937"/>
<path id="Vector_27" d="M86.5878 56.4845L86.2673 59.3007L98.7919 61.9712L99.4576 58.3053L86.5878 56.4845Z" fill="#DC5937"/>
</g>
<path id="Vector_28" d="M37.9438 73.0176L39.497 70.5655L37.8698 69.643L36.3166 72.0465L37.9438 73.0176Z" fill="#37C0C9"/>
<g id="Group_7">
<path id="Vector_29" d="M32.8402 82.583L37.2041 74.4014L35.429 73.4546L30.3994 81.272L32.8402 82.583Z" fill="#37C0C9"/>
<path id="Vector_30" d="M28.5256 84.1853L23.6686 91.7843L26.9231 93.6294L31.1884 85.6663L28.5256 84.1853Z" fill="#37C0C9"/>
</g>
<path id="Vector_31" d="M23.0029 64.9088L5.71991 73.8673L7.59368 77.072L24.1617 66.9724L23.0029 64.9088Z" fill="#DC5937"/>
<path id="Vector_32" d="M65.8531 68.2834L65.0394 68.8904L80.3501 88.6525L83.2347 86.2733L65.8531 68.2834Z" fill="#325CA8"/>
<path id="Vector_33" d="M29.857 61.34L25.7396 63.3551L26.6025 64.7389L30.572 62.5054L29.857 61.34Z" fill="#DC5937"/>
<path id="Vector_34" d="M31.0404 14.5325L28.6736 15.9164L38.4615 30.6287L39.3244 30.1431L31.0404 14.5325Z" fill="#F8E65C"/>
<path id="Vector_35" d="M90.0641 72.265L88.2643 75.154L92.0858 77.5333L93.9596 74.3043L90.0641 72.265Z" fill="#F8E65C"/>
<path id="Vector_36" d="M42.7268 73.2604L35.7988 98.5092L33.4566 97.7809L42.1844 73.0904L42.7268 73.2604Z" fill="#010101"/>
<path id="Vector_37" d="M30.7939 38.349L9.19625 24.4136L6.87869 28.2495L29.9063 39.8057L30.7939 38.349Z" fill="#DC5937"/>
<path id="Vector_38" d="M58.8264 21.8887L62.8452 4.36016L59.1223 3.72894L56.7061 21.5002L58.8264 21.8887Z" fill="#D22768"/>
<path id="Vector_39" d="M11.3166 34.2703L9.73865 38.2276L29.3885 43.6658L29.7584 42.4519L11.3166 34.2703Z" fill="#6DBE49"/>
<path id="Vector_40" d="M7.34712 59.4221L19.8718 56.8729L19.3047 54.4937L6.7554 56.1203L7.34712 59.4221Z" fill="#010101"/>
<path id="Vector_41" d="M44.5759 77.0477L39.2505 99.6503L44.6499 100.5L46.9674 77.3633L44.5759 77.0477Z" fill="#754FA0"/>
<path id="Vector_42" d="M91.642 64.3505L72.3619 58.1596L71.7209 59.9076L90.6065 67.5308L91.642 64.3505Z" fill="#010101"/>
<path id="Vector_43" d="M73.003 39.7086L95.7594 30.5559L92.1844 23.8309L71.9428 37.5721L73.003 39.7086Z" fill="#37C0C9"/>
<path id="Vector_44" d="M35.6509 30.4102L22.7811 12.6874L18.2199 16.3048L33.8511 31.6969L35.6509 30.4102Z" fill="#D22968"/>
<path id="Vector_45" d="M24.7288 53.7411L20.858 54.2752L21.3511 56.5816L25.1479 55.7804L24.7288 53.7411Z" fill="#010101"/>
<path id="Vector_46" d="M24.8274 43.7872L3.42703 39.2715L2.98325 42.719L24.6548 45.2681L24.8274 43.7872Z" fill="#754FA0"/>
<path id="Vector_47" d="M74.1864 63.8892L73.0523 65.71L85.7988 73.6245L87.5 70.9054L74.1864 63.8892Z" fill="#F8E65C"/>
<path id="Vector_48" d="M30.1036 64.5447L11.1194 79.0142L13.5355 81.8547L31.3856 66.147L30.1036 64.5447Z" fill="#325CA8"/>
<path id="Vector_49" d="M51.1834 93.3138L50.5177 72.095H49.4576L48.6193 93.3138H51.1834Z" fill="#325CA8"/>
</g>
<defs>
<clipPath id="clip0_2_5">
<rect width="100" height="100" fill="white" transform="translate(0 0.5)"/>
</clipPath>
</defs>
</svg>
