<svg width="20" height="21" viewBox="0 0 20 21" fill="none" xmlns="http://www.w3.org/2000/svg">
<g id="e_mail_signature" clip-path="url(#clip0_2_70)">
<path id="Vector" d="M9.99047 20.4809C15.5081 20.4809 19.9809 16.0081 19.9809 10.4905C19.9809 4.97288 15.5081 0.5 9.99047 0.5C4.47288 0.5 0 4.97288 0 10.4905C0 16.0081 4.47288 20.4809 9.99047 20.4809Z" fill="#33BFC8"/>
<g id="Group">
<path id="Vector_2" d="M15.5386 10.5095C15.5386 11.7869 15.1001 12.9499 14.3756 13.8651C13.3651 15.1806 11.7827 16.0195 9.99047 16.0195C8.19829 16.0195 6.63489 15.1806 5.62441 13.8651C4.89991 12.9499 4.4614 11.7679 4.4614 10.5095C4.4614 9.17492 4.93804 7.95472 5.71974 7.00143C6.73022 5.76215 8.27455 4.98045 9.99047 4.98045C11.7064 4.98045 13.2507 5.76215 14.2612 7.00143C15.0429 7.95472 15.5195 9.17492 15.5195 10.5095H15.5386Z" stroke="white" stroke-miterlimit="10"/>
<path id="Vector_3" d="M9.99047 15.9814C11.5699 15.9814 12.8503 13.5145 12.8503 10.4714C12.8503 7.42831 11.5699 4.9614 9.99047 4.9614C8.41101 4.9614 7.1306 7.42831 7.1306 10.4714C7.1306 13.5145 8.41101 15.9814 9.99047 15.9814Z" stroke="white" stroke-miterlimit="10"/>
<path id="Vector_4" d="M14.2612 6.98236C13.5748 7.34461 12.7359 7.6306 11.8017 7.80219C11.2298 7.89752 10.6196 7.95472 9.99048 7.95472C9.36131 7.95472 8.7512 7.89752 8.17923 7.80219C7.22594 7.6306 6.38704 7.34461 5.71974 6.98236" stroke="white" stroke-miterlimit="10"/>
<path id="Vector_5" d="M5.6244 13.8651C6.31077 13.4647 7.16873 13.1597 8.14109 12.969C8.73213 12.8737 9.34223 12.8165 9.99047 12.8165C10.6387 12.8165 11.2488 12.8737 11.8398 12.969C12.8122 13.1406 13.6892 13.4647 14.3756 13.8651" stroke="white" stroke-miterlimit="10"/>
<path id="Vector_6" d="M4.4614 10.5095H7.93137H12.0686H15.5386" stroke="white" stroke-miterlimit="10"/>
<path id="Vector_7" d="M9.99046 4.98045V8.43136V12.5686V16.0386" stroke="white" stroke-miterlimit="10"/>
</g>
</g>
<defs>
<clipPath id="clip0_2_70">
<rect width="20" height="20" fill="white" transform="translate(0 0.5)"/>
</clipPath>
</defs>
</svg>
